<svg xmlns="http://www.w3.org/2000/svg" width="49" height="85" fill="none" viewBox="0 0 49 85"><g filter="url(#filter0_d_528_240)"><path fill="#F67688" d="M32.3581 13.857C32.3581 18.276 28.7757 21.8584 24.3567 21.8584C19.9376 21.8584 16.3553 18.276 16.3553 13.857C16.3553 9.4379 19.9376 5.85555 24.3567 5.85555C28.7757 5.85555 32.3581 9.4379 32.3581 13.857Z"/><path fill="#F1324D" fill-rule="evenodd" d="M24.1234 60.5366L11.9995 15.7524C11.5871 11.9586 12.6923 4.02471 20.412 2.63912C22.4738 2.1443 27.2903 1.45154 30.0615 2.63912C33.5255 4.1236 37.9792 10.8038 36.4946 15.7524L24.1234 60.5366ZM24.3567 21.8584C28.7757 21.8584 32.3581 18.276 32.3581 13.857C32.3581 9.4379 28.7757 5.85555 24.3567 5.85555C19.9376 5.85555 16.3553 9.4379 16.3553 13.857C16.3553 18.276 19.9376 21.8584 24.3567 21.8584Z" clip-rule="evenodd"/><path stroke="#F1324D" stroke-width="1.54" d="M32.3581 13.857C32.3581 18.276 28.7757 21.8584 24.3567 21.8584C19.9376 21.8584 16.3553 18.276 16.3553 13.857C16.3553 9.4379 19.9376 5.85555 24.3567 5.85555C28.7757 5.85555 32.3581 9.4379 32.3581 13.857Z"/><path fill-rule="evenodd" stroke="#F1324D" stroke-width="1.54" d="M24.1234 60.5366L11.9995 15.7524C11.5871 11.9586 12.6923 4.02471 20.412 2.63912C22.4738 2.1443 27.2903 1.45154 30.0615 2.63912C33.5255 4.1236 37.9792 10.8038 36.4946 15.7524L24.1234 60.5366ZM24.3567 21.8584C28.7757 21.8584 32.3581 18.276 32.3581 13.857C32.3581 9.4379 28.7757 5.85555 24.3567 5.85555C19.9376 5.85555 16.3553 9.4379 16.3553 13.857C16.3553 18.276 19.9376 21.8584 24.3567 21.8584Z" clip-rule="evenodd"/></g><defs><filter id="filter0_d_528_240" width="48.403" height="84.241" x=".155" y=".214" color-interpolation-filters="sRGB" filterUnits="userSpaceOnUse"><feFlood flood-opacity="0" result="BackgroundImageFix"/><feColorMatrix in="SourceAlpha" result="hardAlpha" type="matrix" values="0 0 0 0 0 0 0 0 0 0 0 0 0 0 0 0 0 0 127 0"/><feOffset dy="10"/><feGaussianBlur stdDeviation="5.5"/><feComposite in2="hardAlpha" operator="out"/><feColorMatrix type="matrix" values="0 0 0 0 0 0 0 0 0 0 0 0 0 0 0 0 0 0 0.25 0"/><feBlend in2="BackgroundImageFix" mode="normal" result="effect1_dropShadow_528_240"/><feBlend in="SourceGraphic" in2="effect1_dropShadow_528_240" mode="normal" result="shape"/></filter></defs></svg>